<?xml version="1.0" encoding="UTF-8"?>
<svg xmlns="http://www.w3.org/2000/svg" xmlns:xlink="http://www.w3.org/1999/xlink" viewBox="0 0 119.66 40">
  <defs>
    <style>
      .cls-1 {
        fill: url(#linear-gradient);
      }

      .cls-1, .cls-2 {
        stroke-width: 0px;
      }

      .cls-2 {
        fill: #000;
      }
    </style>
    <linearGradient id="linear-gradient" x1="22.53" y1="-17.3" x2="97.13" y2="57.3" gradientUnits="userSpaceOnUse">
      <stop offset="0" stop-color="#9333ea"/>
      <stop offset="1" stop-color="#8b5cf6"/>
    </linearGradient>
  </defs>
  <g id="livetype">
    <g>
      <path class="cls-2" d="M110.13,0H9.53C9.17,0,8.81,0,8.44,0c-.31,0-.61,0-.92.01-.67,0-1.34.07-2,.18-.66.11-1.3.32-1.9.63-.6.31-1.14.7-1.62,1.18-.48.47-.88,1.02-1.18,1.62-.3.6-.51,1.24-.62,1.9C.08,6.18.02,6.85.02,7.52c0,.31-.01.61-.02.92v23.11c0,.31,0,.61.02.92,0,.67.07,1.34.18,2,.11.66.32,1.31.63,1.9.3.6.7,1.14,1.18,1.61.47.48,1.02.87,1.62,1.18.6.3,1.24.52,1.9.63.66.11,1.33.17,2,.18.31,0,.61.01.92.01.37,0,.73,0,1.09,0h100.6c.36,0,.72,0,1.08,0,.3,0,.62,0,.92-.01.67,0,1.34-.07,2-.18.66-.11,1.31-.33,1.91-.63.6-.3,1.14-.7,1.62-1.18.48-.47.87-1.02,1.18-1.61.3-.6.51-1.24.62-1.9.11-.66.17-1.33.19-2,0-.31,0-.61,0-.92,0-.36,0-.72,0-1.09V9.54c0-.37,0-.73,0-1.09,0-.31,0-.61,0-.92-.01-.67-.07-1.34-.19-2-.11-.66-.32-1.3-.62-1.9-.62-1.2-1.6-2.18-2.8-2.8-.6-.3-1.24-.51-1.91-.63-.66-.11-1.33-.17-2-.18-.3,0-.62-.01-.92-.01-.36,0-.72,0-1.08,0h0Z"/>
      <path class="cls-1" d="M8.44,39.13c-.3,0-.6,0-.9-.01-.63,0-1.25-.06-1.87-.16-.58-.1-1.13-.28-1.66-.55-.52-.26-.99-.61-1.4-1.02-.41-.41-.76-.88-1.02-1.4-.26-.52-.45-1.08-.54-1.66-.1-.62-.16-1.25-.17-1.88,0-.21-.01-.91-.01-.91V8.44s0-.69.01-.89c0-.63.06-1.25.17-1.87.1-.58.28-1.14.54-1.66.26-.52.6-.99,1.02-1.4.41-.41.88-.76,1.4-1.02.52-.26,1.08-.45,1.65-.54.62-.1,1.25-.16,1.88-.16h.9s102.77-.01,102.77-.01h.91c.62.02,1.24.07,1.86.18.58.1,1.14.28,1.67.55,1.04.53,1.88,1.38,2.42,2.42.26.52.44,1.08.54,1.65.1.62.16,1.25.17,1.89,0,.28,0,.59,0,.89,0,.38,0,.73,0,1.09v20.93c0,.36,0,.72,0,1.08,0,.33,0,.62,0,.93-.01.62-.07,1.24-.17,1.85-.09.58-.28,1.14-.54,1.67-.26.51-.61.98-1.02,1.39-.41.41-.88.76-1.4,1.02-.53.27-1.09.45-1.67.55-.62.1-1.24.16-1.87.16-.29,0-.6.01-.9.01h-1.08s-101.69,0-101.69,0Z"/>
    </g>
    <path class="cls-2" d="M28.12,12.43c-1.58-.72-3.24-1.23-4.95-1.52-.23.42-.45.85-.63,1.29-1.82-.27-3.67-.27-5.5,0-.19-.44-.4-.87-.63-1.29-1.71.29-3.38.81-4.96,1.53-3.13,4.64-3.98,9.16-3.56,13.62h0c1.84,1.36,3.89,2.39,6.07,3.05.49-.66.93-1.36,1.3-2.1-.71-.27-1.4-.59-2.05-.98.17-.12.34-.25.5-.38,3.85,1.81,8.3,1.81,12.14,0,.16.13.33.26.5.38-.65.39-1.34.71-2.05.98.37.73.81,1.44,1.3,2.1,2.19-.66,4.24-1.69,6.08-3.05h0c.5-5.17-.85-9.65-3.57-13.62ZM15.8,23.31c-1.18,0-2.16-1.07-2.16-2.4s.94-2.41,2.16-2.41,2.18,1.08,2.16,2.41-.95,2.4-2.16,2.4ZM23.77,23.31c-1.19,0-2.16-1.07-2.16-2.4s.94-2.41,2.16-2.41,2.18,1.08,2.16,2.41-.95,2.4-2.16,2.4Z"/>
  </g>
  <g id="Layer_5" data-name="Layer 5">
    <g>
      <path class="cls-2" d="M40.7,31.32c-.4,0-.7-.1-.91-.32-.21-.21-.31-.51-.31-.91v-10.24c0-.4.1-.7.31-.91.21-.21.51-.31.91-.31h3.49c2.12,0,3.76.55,4.92,1.64,1.16,1.09,1.74,2.66,1.74,4.7,0,1.02-.15,1.92-.44,2.71s-.73,1.45-1.3,1.99-1.27.95-2.09,1.23c-.82.28-1.77.42-2.83.42h-3.49ZM41.78,29.41h2.27c.74,0,1.39-.09,1.94-.28.55-.19,1-.46,1.37-.83.37-.37.64-.83.82-1.39.18-.56.27-1.21.27-1.95,0-1.49-.37-2.6-1.1-3.33-.73-.73-1.83-1.1-3.29-1.1h-2.27v8.87Z"/>
      <path class="cls-2" d="M54.1,20.72c-.42,0-.75-.1-.98-.31-.23-.21-.35-.5-.35-.87s.12-.68.35-.88c.23-.2.56-.31.98-.31s.76.1.99.31.34.5.34.88-.11.66-.34.87-.56.31-.99.31ZM54.1,31.45c-.36,0-.64-.11-.83-.32s-.29-.52-.29-.9v-6.61c0-.4.1-.7.29-.91s.47-.32.83-.32.64.11.84.32c.2.21.3.51.3.91v6.61c0,.38-.1.68-.29.9s-.47.32-.85.32Z"/>
      <path class="cls-2" d="M60.79,31.5c-.52,0-1.06-.05-1.64-.16-.58-.11-1.09-.29-1.55-.56-.19-.12-.33-.26-.41-.42s-.11-.32-.09-.49.08-.3.18-.42c.1-.12.23-.2.4-.23.16-.04.34,0,.53.09.48.23.93.39,1.35.48s.83.13,1.24.13c.58,0,1-.1,1.29-.3.28-.2.42-.46.42-.78,0-.28-.09-.49-.28-.64-.19-.15-.46-.26-.84-.33l-1.8-.34c-.74-.14-1.31-.42-1.7-.82-.39-.4-.58-.92-.58-1.56,0-.58.16-1.07.48-1.49s.76-.74,1.32-.97,1.21-.34,1.94-.34c.53,0,1.02.06,1.48.17s.91.29,1.34.53c.18.1.3.22.37.38.07.16.08.31.04.48-.04.16-.11.31-.22.43s-.24.21-.41.23c-.16.03-.34,0-.55-.1-.37-.19-.73-.33-1.07-.41-.34-.08-.67-.13-.98-.13-.59,0-1.02.1-1.31.31-.28.2-.42.47-.42.81,0,.25.08.46.25.63.17.17.43.28.77.34l1.8.34c.78.14,1.37.41,1.77.79.4.38.6.9.6,1.55,0,.88-.34,1.56-1.03,2.06-.68.5-1.6.75-2.74.75Z"/>
      <path class="cls-2" d="M70.42,31.5c-.92,0-1.73-.19-2.41-.57-.68-.38-1.21-.92-1.58-1.61-.37-.7-.56-1.51-.56-2.45,0-.71.11-1.34.32-1.9s.51-1.03.91-1.42c.4-.39.88-.69,1.44-.9.56-.21,1.19-.31,1.89-.31.4,0,.82.05,1.29.16.46.11.9.29,1.3.54.19.12.32.26.38.43.06.17.07.34.04.51s-.11.32-.23.45c-.11.13-.25.2-.42.23-.17.03-.35,0-.56-.12-.26-.16-.53-.27-.81-.35-.28-.08-.54-.12-.79-.12-.4,0-.74.06-1.04.19s-.55.31-.76.54-.37.53-.48.87c-.11.35-.16.75-.16,1.21,0,.89.21,1.59.64,2.1s1.03.76,1.81.76c.25,0,.51-.04.78-.11.27-.07.54-.19.82-.34.2-.11.39-.14.55-.11s.3.12.41.24c.11.13.17.28.2.45.02.17,0,.34-.06.51-.07.17-.19.31-.37.41-.4.24-.82.41-1.26.52-.44.11-.86.16-1.26.16Z"/>
      <path class="cls-2" d="M78.86,31.5c-.91,0-1.7-.19-2.38-.56s-1.19-.9-1.57-1.59c-.37-.69-.56-1.5-.56-2.44,0-.71.11-1.34.32-1.9.21-.56.51-1.04.91-1.44.4-.4.87-.71,1.42-.92s1.17-.31,1.85-.31c.91,0,1.7.19,2.38.56s1.19.9,1.57,1.58c.37.68.56,1.49.56,2.43,0,.71-.1,1.34-.31,1.91-.21.56-.51,1.05-.91,1.45-.4.4-.87.71-1.42.92s-1.17.31-1.85.31ZM78.86,29.79c.44,0,.83-.11,1.17-.32s.6-.54.78-.96c.19-.43.28-.96.28-1.59,0-.96-.2-1.68-.61-2.15s-.95-.71-1.62-.71c-.44,0-.83.1-1.17.31s-.6.53-.78.95c-.19.43-.28.96-.28,1.59,0,.95.2,1.67.61,2.15.41.49.95.73,1.62.73Z"/>
      <path class="cls-2" d="M86.37,31.46c-.37,0-.66-.1-.86-.3-.2-.2-.3-.48-.3-.85v-6.8c0-.37.1-.65.29-.85s.46-.29.81-.29.62.1.81.29c.19.19.29.47.29.85v1.13h-.18c.17-.72.5-1.27.99-1.64s1.15-.59,1.96-.67c.25-.02.45.04.6.19.15.15.24.38.26.69.02.3-.04.54-.21.73-.16.19-.41.3-.73.33l-.4.04c-.73.07-1.28.3-1.66.67s-.56.91-.56,1.59v3.73c0,.37-.1.66-.29.85-.19.2-.47.3-.85.3Z"/>
      <path class="cls-2" d="M95.66,31.5c-.77,0-1.44-.19-2.02-.56s-1.04-.9-1.36-1.59c-.32-.69-.49-1.5-.49-2.44s.16-1.76.49-2.44.78-1.2,1.36-1.58,1.26-.56,2.02-.56,1.37.18,1.92.54c.55.36.92.83,1.11,1.42h-.2v-4.68c0-.37.1-.65.29-.85.19-.19.47-.29.83-.29s.64.1.84.29.3.47.3.85v10.69c0,.37-.1.66-.29.85-.19.2-.47.3-.83.3s-.64-.1-.83-.3c-.19-.2-.29-.48-.29-.85v-1.4l.2.54c-.18.62-.55,1.12-1.1,1.49s-1.2.56-1.94.56ZM96.29,29.79c.44,0,.83-.11,1.17-.32s.6-.54.78-.96c.19-.43.28-.96.28-1.59,0-.96-.2-1.68-.61-2.15s-.95-.71-1.62-.71c-.44,0-.83.1-1.17.31s-.6.53-.78.95c-.19.43-.28.96-.28,1.59,0,.95.2,1.67.61,2.15.41.49.95.73,1.62.73Z"/>
    </g>
    <g>
      <path class="cls-2" d="M40.09,15.69c-.17,0-.3-.04-.4-.13s-.14-.22-.14-.36c0-.11.04-.21.1-.3.07-.09.17-.14.3-.14l.34-.02c.35-.03.62-.15.8-.36.18-.21.27-.5.27-.87v-5.14c0-.19.05-.33.14-.43.1-.1.23-.14.42-.14s.32.05.42.14.15.24.15.43v5.14c0,.44-.08.82-.24,1.13-.16.31-.39.56-.69.73-.3.18-.67.28-1.12.31l-.37.02Z"/>
      <path class="cls-2" d="M46.53,15.72c-.54,0-1.01-.11-1.4-.34-.39-.23-.7-.55-.92-.97s-.33-.91-.33-1.47c0-.43.06-.82.19-1.15s.3-.63.53-.87.51-.43.84-.56c.33-.13.69-.19,1.09-.19.54,0,1,.11,1.39.34.39.23.7.55.92.96.22.41.33.91.33,1.48,0,.43-.06.81-.19,1.16s-.3.64-.53.88c-.23.24-.51.43-.84.56-.33.13-.69.19-1.08.19ZM46.53,14.87c.3,0,.56-.07.79-.22.23-.15.41-.36.53-.65s.19-.64.19-1.06c0-.63-.14-1.11-.42-1.43s-.65-.48-1.1-.48c-.31,0-.58.07-.8.21-.23.14-.41.36-.53.64-.13.29-.19.64-.19,1.06,0,.62.14,1.1.42,1.43s.65.5,1.11.5Z"/>
      <path class="cls-2" d="M50.96,9.06c-.22,0-.39-.06-.51-.17-.12-.11-.18-.26-.18-.46s.06-.36.18-.47c.12-.11.29-.16.51-.16s.39.05.51.16c.12.11.18.26.18.47s-.06.35-.18.46c-.12.11-.29.17-.51.17ZM50.96,15.69c-.18,0-.31-.05-.41-.16-.1-.11-.14-.25-.14-.45v-4.29c0-.19.05-.34.14-.44.1-.1.23-.15.41-.15s.31.05.41.15c.1.1.15.25.15.44v4.29c0,.19-.05.34-.14.45-.1.11-.23.16-.42.16Z"/>
      <path class="cls-2" d="M53.63,15.7c-.18,0-.31-.05-.41-.15-.1-.1-.14-.24-.14-.41v-4.4c0-.18.05-.32.14-.42.1-.1.23-.14.4-.14s.31.05.4.14c.09.1.14.23.14.42v.86l-.12-.2c.16-.41.41-.72.76-.93s.74-.31,1.19-.31.78.08,1.06.24c.28.16.49.4.63.71.14.32.21.72.21,1.2v2.83c0,.18-.05.31-.14.41-.1.1-.23.15-.41.15s-.32-.05-.42-.15c-.1-.1-.14-.24-.14-.41v-2.76c0-.46-.09-.8-.27-1.01-.18-.21-.46-.32-.84-.32-.45,0-.81.14-1.07.42-.27.28-.4.65-.4,1.12v2.55c0,.37-.19.56-.56.56Z"/>
      <path class="cls-2" d="M64.61,15.72c-.44,0-.81-.08-1.11-.23-.3-.15-.52-.38-.67-.68s-.22-.67-.22-1.1v-2.6h-.66c-.15,0-.26-.04-.34-.12s-.12-.18-.12-.31c0-.14.04-.25.12-.32s.19-.11.34-.11h.66v-1.13c0-.18.05-.32.15-.42s.24-.14.41-.14.31.05.41.14.14.23.14.42v1.13h1.29c.15,0,.26.04.34.11.08.07.12.18.12.32,0,.13-.04.24-.12.31-.08.08-.19.12-.34.12h-1.29v2.51c0,.39.08.68.25.88.17.2.43.3.81.3.13,0,.25-.01.35-.04.1-.03.18-.04.25-.05.08,0,.15.03.2.08.05.06.08.16.08.31,0,.11-.02.21-.06.31-.04.1-.11.16-.21.19-.09.03-.21.06-.36.08-.15.03-.28.04-.4.04Z"/>
      <path class="cls-2" d="M66.89,15.7c-.18,0-.31-.05-.41-.15-.1-.1-.14-.24-.14-.41v-6.79c0-.18.05-.32.14-.42s.23-.14.41-.14.31.05.41.14c.1.1.15.23.15.42v3.05h-.15c.16-.41.41-.72.76-.93.35-.21.74-.31,1.19-.31s.78.08,1.06.24c.28.16.49.4.63.71.14.32.21.72.21,1.2v2.83c0,.18-.05.31-.14.41-.1.1-.23.15-.41.15s-.32-.05-.42-.15c-.1-.1-.14-.24-.14-.41v-2.76c0-.46-.09-.8-.27-1.01-.18-.21-.46-.32-.84-.32-.45,0-.8.14-1.07.42-.27.28-.4.65-.4,1.12v2.55c0,.37-.19.56-.56.56Z"/>
      <path class="cls-2" d="M75.19,15.72c-.59,0-1.09-.11-1.51-.34s-.75-.54-.98-.96c-.23-.41-.35-.91-.35-1.48s.11-1.04.34-1.46c.23-.42.54-.74.94-.98.4-.23.85-.35,1.35-.35.37,0,.71.06,1,.18s.54.3.75.53.37.51.47.84.16.7.16,1.11c0,.12-.04.22-.11.28s-.18.09-.33.09h-3.7v-.68h3.39l-.19.15c0-.37-.05-.68-.16-.94-.11-.26-.26-.45-.47-.59s-.47-.2-.78-.2c-.34,0-.64.08-.87.24s-.42.38-.54.67-.19.62-.19,1v.07c0,.65.15,1.13.46,1.46.3.33.75.49,1.33.49.22,0,.45-.03.7-.09.25-.06.48-.16.7-.3.12-.07.24-.11.34-.1.1,0,.18.04.24.1s.1.13.12.22c.01.09,0,.18-.04.27s-.12.17-.23.25c-.25.17-.54.3-.87.38-.33.08-.65.13-.96.13Z"/>
    </g>
  </g>
</svg>